<svg version="1.1"
  xmlns="http://www.w3.org/2000/svg"
  xmlns:xlink="http://www.w3.org/1999/xlink" viewBox="0 0 252 252">
  <g fill="none" fill-rule="nonzero" stroke="none" stroke-width="6" stroke-linecap="butt" stroke-linejoin="miter" stroke-miterlimit="10" stroke-dasharray="" stroke-dashoffset="0" font-family="none" font-weight="none" font-size="none" text-anchor="none" style="mix-blend-mode: normal">
    <path d="M0,252v-252h252v252z" fill="none"></path>
    <path d="M0,252v-252h252v252z" fill="#e67e22"></path>
    <g id="original-icon" fill="#ffffff">
      <g id="surface1">
        <path d="M76.2298,75.52814c-0.96863,0.2205 -1.65375,1.08675 -1.638,2.079v96.768c0.00787,1.14187 0.93713,2.07113 2.079,2.079h60.48c1.14187,-0.00787 2.07113,-0.93713 2.079,-2.079v-20.16h-4.158v18.081h-56.322v-92.61h56.322v18.081h4.158v-20.16c-0.00787,-1.14187 -0.93713,-2.07113 -2.079,-2.079h-60.48c-0.14963,-0.01575 -0.29137,-0.01575 -0.441,0zM153.0898,106.02014c-0.756,0.13387 -1.36237,0.68513 -1.575,1.4175c-0.21263,0.74025 0.00787,1.52775 0.567,2.0475l14.427,14.49h-59.598c-0.063,0 -0.126,0 -0.189,0c-1.11037,0.05513 -1.97663,1.00013 -1.9215,2.1105c0.05513,1.11037 1.00013,1.97663 2.1105,1.9215h59.598l-14.427,14.49c-0.5985,0.48825 -0.87413,1.26787 -0.70087,2.02387c0.17325,0.74813 0.76387,1.33875 1.512,1.512c0.756,0.17325 1.53563,-0.10237 2.02387,-0.70087l17.955,-17.892l1.386,-1.449l-1.386,-1.449l-17.955,-17.892c-0.41737,-0.44887 -1.02375,-0.67725 -1.638,-0.63c-0.063,0 -0.126,0 -0.189,0z"></path>
      </g>
    </g>
    <g fill="#ffffff">
      <path d="M210.535,172.345l5.31,-27.23h-17.53l-5.31,27.23h-9.5l5.31,-27.23h-15.87v-9.09h17.6l4.58,-23.51h-17.13v-9.23h18.93l5.44,-27.63h9.5l-5.45,27.63h17.53l5.45,-27.63h9.56l-5.45,27.63h13.55v9.23h-15.34l-4.58,23.51h14.94v9.09h-16.67l-5.31,27.23zM204.625,112.515l-4.58,23.51h17.53l4.58,-23.51z"></path>
    </g>
  </g>
</svg>